<mxfile host="65bd71144e">
    <diagram id="fP3I8rtC_dKBm0_7vCMO" name="Page-1">
        <mxGraphModel dx="1780" dy="1190" grid="1" gridSize="10" guides="1" tooltips="1" connect="1" arrows="1" fold="1" page="1" pageScale="1" pageWidth="3300" pageHeight="4681" math="0" shadow="0">
            <root>
                <mxCell id="0"/>
                <mxCell id="1" parent="0"/>
                <mxCell id="3" value="下行消息" style="swimlane;startSize=30;" parent="1" vertex="1">
                    <mxGeometry x="60" y="60" width="580" height="740" as="geometry"/>
                </mxCell>
                <mxCell id="7" value="" style="edgeStyle=none;html=1;" parent="3" source="4" target="6" edge="1">
                    <mxGeometry relative="1" as="geometry">
                        <Array as="points">
                            <mxPoint x="250" y="240"/>
                        </Array>
                    </mxGeometry>
                </mxCell>
                <mxCell id="9" value="" style="edgeStyle=none;html=1;" parent="3" source="4" target="8" edge="1">
                    <mxGeometry relative="1" as="geometry"/>
                </mxCell>
                <mxCell id="11" value="" style="edgeStyle=none;html=1;" parent="3" source="4" target="10" edge="1">
                    <mxGeometry relative="1" as="geometry"/>
                </mxCell>
                <mxCell id="14" value="" style="edgeStyle=none;html=1;" parent="3" source="6" target="15" edge="1">
                    <mxGeometry relative="1" as="geometry">
                        <mxPoint x="360" y="420" as="targetPoint"/>
                    </mxGeometry>
                </mxCell>
                <mxCell id="13" value="" style="edgeStyle=none;html=1;" parent="3" source="8" target="12" edge="1">
                    <mxGeometry relative="1" as="geometry"/>
                </mxCell>
                <mxCell id="16" value="" style="edgeStyle=none;html=1;" parent="3" source="10" target="15" edge="1">
                    <mxGeometry relative="1" as="geometry"/>
                </mxCell>
                <mxCell id="18" value="" style="edgeStyle=none;html=1;" parent="3" source="12" target="17" edge="1">
                    <mxGeometry relative="1" as="geometry"/>
                </mxCell>
                <mxCell id="12" value="&lt;div style=&quot;background-color: rgb(30 , 30 , 30) ; font-family: &amp;#34;consolas&amp;#34; , &amp;#34;courier new&amp;#34; , monospace ; font-size: 14px ; line-height: 19px&quot;&gt;&lt;font color=&quot;#dcdcaa&quot;&gt;获取命令内容处理&lt;/font&gt;&lt;/div&gt;&lt;div style=&quot;color: rgb(212 , 212 , 212) ; background-color: rgb(30 , 30 , 30) ; font-family: &amp;#34;consolas&amp;#34; , &amp;#34;courier new&amp;#34; , monospace ; font-size: 14px ; line-height: 19px&quot;&gt;&lt;span style=&quot;color: #dcdcaa&quot;&gt;Mars_property_get_callback&lt;/span&gt;&lt;/div&gt;" style="whiteSpace=wrap;html=1;rounded=1;" parent="3" vertex="1">
                    <mxGeometry x="30" y="350" width="210" height="60" as="geometry"/>
                </mxCell>
                <mxCell id="19" value="" style="edgeStyle=none;html=1;" parent="3" source="15" target="17" edge="1">
                    <mxGeometry relative="1" as="geometry"/>
                </mxCell>
                <mxCell id="15" value="&lt;div style=&quot;color: rgb(212 , 212 , 212) ; background-color: rgb(30 , 30 , 30) ; font-family: &amp;#34;consolas&amp;#34; , &amp;#34;courier new&amp;#34; , monospace ; font-size: 14px ; line-height: 19px&quot;&gt;&lt;span style=&quot;color: #dcdcaa&quot;&gt;服务、设置命令内容处理&lt;/span&gt;&lt;/div&gt;&lt;div style=&quot;color: rgb(212 , 212 , 212) ; background-color: rgb(30 , 30 , 30) ; font-family: &amp;#34;consolas&amp;#34; , &amp;#34;courier new&amp;#34; , monospace ; font-size: 14px ; line-height: 19px&quot;&gt;&lt;span style=&quot;color: #dcdcaa&quot;&gt;Mars_property_set_callback&lt;/span&gt;&lt;/div&gt;" style="whiteSpace=wrap;html=1;rounded=1;" parent="3" vertex="1">
                    <mxGeometry x="260" y="350" width="210" height="60" as="geometry"/>
                </mxCell>
                <mxCell id="21" value="" style="edgeStyle=none;html=1;" parent="3" source="17" target="20" edge="1">
                    <mxGeometry relative="1" as="geometry"/>
                </mxCell>
                <mxCell id="17" value="发送串口命令内容&lt;br&gt;&lt;div style=&quot;color: rgb(212 , 212 , 212) ; background-color: rgb(30 , 30 , 30) ; font-family: &amp;#34;consolas&amp;#34; , &amp;#34;courier new&amp;#34; , monospace ; font-size: 14px ; line-height: 19px&quot;&gt;&lt;span style=&quot;color: #dcdcaa&quot;&gt;Mars_uartmsg_send&lt;/span&gt;&lt;/div&gt;" style="whiteSpace=wrap;html=1;rounded=1;" parent="3" vertex="1">
                    <mxGeometry x="100" y="430" width="320" height="60" as="geometry"/>
                </mxCell>
                <mxCell id="23" value="" style="edgeStyle=none;html=1;" parent="3" source="20" target="22" edge="1">
                    <mxGeometry relative="1" as="geometry"/>
                </mxCell>
                <mxCell id="27" value="SDK实现" style="swimlane;horizontal=0;startSize=30;rotation=-180;" parent="3" vertex="1">
                    <mxGeometry x="20" y="50" width="540" height="160" as="geometry"/>
                </mxCell>
                <mxCell id="2" value="云端下行消息接收" style="rounded=1;whiteSpace=wrap;html=1;" parent="27" vertex="1">
                    <mxGeometry x="170" y="20" width="120" height="50" as="geometry"/>
                </mxCell>
                <mxCell id="4" value="云端下行消息分类" style="whiteSpace=wrap;html=1;rounded=1;" parent="27" vertex="1">
                    <mxGeometry x="170" y="90" width="120" height="50" as="geometry"/>
                </mxCell>
                <mxCell id="5" value="" style="edgeStyle=none;html=1;" parent="27" source="2" target="4" edge="1">
                    <mxGeometry relative="1" as="geometry"/>
                </mxCell>
                <mxCell id="28" value="Mars封装" style="swimlane;horizontal=0;rotation=-180;startSize=30;" parent="3" vertex="1">
                    <mxGeometry x="20" y="230" width="540" height="100" as="geometry"/>
                </mxCell>
                <mxCell id="6" value="属性设置&amp;lt;set&amp;gt;&lt;br&gt;格式命令解析" style="whiteSpace=wrap;html=1;rounded=1;" parent="28" vertex="1">
                    <mxGeometry x="170" y="17.5" width="120" height="65" as="geometry"/>
                </mxCell>
                <mxCell id="10" value="设备服务&amp;lt;service&amp;gt;&lt;br&gt;格式命令解析" style="whiteSpace=wrap;html=1;rounded=1;" parent="28" vertex="1">
                    <mxGeometry x="330" y="17.5" width="120" height="65" as="geometry"/>
                </mxCell>
                <mxCell id="8" value="属性获取&amp;lt;get&amp;gt;&lt;br&gt;格式命令解析" style="whiteSpace=wrap;html=1;rounded=1;" parent="28" vertex="1">
                    <mxGeometry x="20" y="17.5" width="120" height="65" as="geometry"/>
                </mxCell>
                <mxCell id="29" value="Mars封装" style="swimlane;horizontal=0;rotation=-180;startSize=30;" parent="3" vertex="1">
                    <mxGeometry x="20" y="510" width="540" height="95" as="geometry"/>
                </mxCell>
                <mxCell id="20" value="串口协议组包" style="whiteSpace=wrap;html=1;rounded=1;" parent="29" vertex="1">
                    <mxGeometry x="180" y="17.5" width="120" height="60" as="geometry"/>
                </mxCell>
                <mxCell id="30" value="SDK实现" style="swimlane;horizontal=0;rotation=-180;startSize=30;" parent="3" vertex="1">
                    <mxGeometry x="20" y="630" width="540" height="90" as="geometry"/>
                </mxCell>
                <mxCell id="22" value="串口发送" style="whiteSpace=wrap;html=1;rounded=1;" parent="30" vertex="1">
                    <mxGeometry x="180" y="15" width="120" height="60" as="geometry"/>
                </mxCell>
                <mxCell id="31" value="上行消息" style="swimlane;startSize=30;" parent="1" vertex="1">
                    <mxGeometry x="670" y="60" width="490" height="690" as="geometry"/>
                </mxCell>
                <mxCell id="32" value="" style="edgeStyle=none;html=1;" parent="31" source="33" target="37" edge="1">
                    <mxGeometry relative="1" as="geometry"/>
                </mxCell>
                <mxCell id="53" value="SDK实现" style="swimlane;horizontal=0;startSize=30;rotation=-180;" parent="31" vertex="1">
                    <mxGeometry x="20" y="50" width="450" height="80" as="geometry"/>
                </mxCell>
                <mxCell id="33" value="上行串口消息接收" style="rounded=1;whiteSpace=wrap;html=1;" parent="53" vertex="1">
                    <mxGeometry x="90" y="15" width="120" height="50" as="geometry"/>
                </mxCell>
                <mxCell id="54" value="Mars封装" style="swimlane;horizontal=0;rotation=-180;startSize=30;" parent="31" vertex="1">
                    <mxGeometry x="20" y="150" width="450" height="160" as="geometry"/>
                </mxCell>
                <mxCell id="57" value="" style="edgeStyle=none;html=1;" parent="54" source="37" target="39" edge="1">
                    <mxGeometry relative="1" as="geometry"/>
                </mxCell>
                <mxCell id="37" value="串口中断处理" style="whiteSpace=wrap;html=1;rounded=1;" parent="54" vertex="1">
                    <mxGeometry x="90" y="20" width="120" height="50" as="geometry"/>
                </mxCell>
                <mxCell id="39" value="协议消息解析" style="whiteSpace=wrap;html=1;rounded=1;" parent="54" vertex="1">
                    <mxGeometry x="90" y="90" width="120" height="50" as="geometry"/>
                </mxCell>
                <mxCell id="56" value="SDK实现" style="swimlane;horizontal=0;rotation=-180;startSize=30;" parent="31" vertex="1">
                    <mxGeometry x="20" y="560" width="450" height="105" as="geometry"/>
                </mxCell>
                <mxCell id="60" value="属性上报&lt;br&gt;&lt;div style=&quot;color: rgb(212 , 212 , 212) ; background-color: rgb(30 , 30 , 30) ; font-family: &amp;#34;consolas&amp;#34; , &amp;#34;courier new&amp;#34; , monospace ; font-size: 14px ; line-height: 19px&quot;&gt;&lt;span style=&quot;color: #dcdcaa&quot;&gt;IOT_Linkkit_Report&lt;/span&gt;&lt;/div&gt;" style="whiteSpace=wrap;html=1;rounded=1;" parent="56" vertex="1">
                    <mxGeometry x="155" y="22.5" width="150" height="60" as="geometry"/>
                </mxCell>
                <mxCell id="58" value="本地操作" style="whiteSpace=wrap;html=1;rounded=1;" parent="31" vertex="1">
                    <mxGeometry x="30" y="340" width="120" height="60" as="geometry"/>
                </mxCell>
                <mxCell id="59" value="" style="edgeStyle=none;html=1;" parent="31" source="39" target="58" edge="1">
                    <mxGeometry relative="1" as="geometry"/>
                </mxCell>
                <mxCell id="66" value="" style="edgeStyle=none;html=1;" parent="31" source="64" target="60" edge="1">
                    <mxGeometry relative="1" as="geometry"/>
                </mxCell>
                <mxCell id="67" value="Mars封装" style="swimlane;horizontal=0;rotation=-180;startSize=30;" parent="31" vertex="1">
                    <mxGeometry x="20" y="430" width="450" height="105" as="geometry"/>
                </mxCell>
                <mxCell id="64" value="属性上报内容组包" style="whiteSpace=wrap;html=1;rounded=1;" parent="67" vertex="1">
                    <mxGeometry x="170" y="20" width="120" height="60" as="geometry"/>
                </mxCell>
                <mxCell id="70" style="edgeStyle=none;html=1;entryX=0.5;entryY=0;entryDx=0;entryDy=0;" parent="31" source="68" target="64" edge="1">
                    <mxGeometry relative="1" as="geometry"/>
                </mxCell>
                <mxCell id="68" value="属性改变操作解析" style="rounded=1;whiteSpace=wrap;html=1;" parent="31" vertex="1">
                    <mxGeometry x="190" y="340" width="120" height="60" as="geometry"/>
                </mxCell>
                <mxCell id="69" value="" style="edgeStyle=none;html=1;" parent="31" source="39" target="68" edge="1">
                    <mxGeometry relative="1" as="geometry"/>
                </mxCell>
            </root>
        </mxGraphModel>
    </diagram>
</mxfile>